<?xml version="1.0" encoding="UTF-8"?> <svg xmlns="http://www.w3.org/2000/svg" height="30.3" viewBox="0 0 30 30.3" width="30"><path d="M7.4 22c0-1.2.2-2.3.6-3.2s1.1-1.8 2.1-2.9 1.7-2 2.1-2.7c.4-.8.6-1.5.6-2.4 0-.7-.1-1.2-.4-1.5-.2-.3-.6-.4-1-.4-.9 0-1.4.6-1.4 1.7v1.8H7.4v-1.7c0-1.4.3-2.5 1-3.2s1.7-1.1 3-1.1 2.3.4 3 1.1 1 1.8 1 3.2c0 1-.3 2.1-.7 3.1s-1.4 2.1-2.6 3.4c-.8.9-1.3 1.5-1.6 2.1-.3.5-.4 1.1-.4 1.7v.4h5.1v2.5H7.4V22zm12.2-11.2h-2.8V8.9c.8 0 1.4-.1 1.9-.2s.8-.3 1.1-.6.5-.7.7-1.3h1.8V24h-2.7V10.8h0zm5.6-6.2h-2.9V2.9h2.9V0h1.7v2.9h2.9v1.7h-2.9v3h-1.7v-3zM15 30.3a14.98 14.98 0 0 1-15-15 14.98 14.98 0 0 1 15-15c2 0 4 .4 5.8 1.2l-.3.8c-1.7-.7-3.6-1.1-5.5-1.1C7.2 1.1.8 7.5.8 15.3S7.2 29.5 15 29.5s14.2-6.4 14.2-14.2c0-1.9-.4-3.8-1.1-5.6l.8-.3a14.82 14.82 0 0 1 1.2 5.9c-.1 8.3-6.8 15-15.1 15h0z" fill="#fff"></path></svg> 