<svg width="16" height="14" viewBox="0 0 16 14" fill="none" xmlns="http://www.w3.org/2000/svg">
<path d="M0.999761 6.00115H12.8597L9.22973 1.64113C9.06 1.43691 8.97833 1.17363 9.0027 0.909203C9.02708 0.644775 9.15555 0.400868 9.35978 0.231128C9.564 0.0613879 9.82725 -0.0202721 10.0917 0.00411036C10.3561 0.0284854 10.6001 0.156908 10.7698 0.361125L15.7697 6.36115C15.8034 6.40885 15.8335 6.45902 15.8597 6.51115C15.8597 6.5611 15.8597 6.5911 15.9298 6.64112C15.9751 6.7558 15.9988 6.87782 15.9998 7.00112C15.9988 7.12442 15.9751 7.24645 15.9298 7.36112C15.9298 7.41115 15.9298 7.44115 15.8597 7.4911C15.8335 7.5433 15.8034 7.5934 15.7697 7.6411L10.7698 13.6411C10.6757 13.754 10.558 13.8448 10.4249 13.907C10.2918 13.9692 10.1467 14.0014 9.99975 14.0011C9.76613 14.0016 9.5397 13.9202 9.35978 13.7711C9.25853 13.6871 9.17483 13.5841 9.11348 13.4677C9.05213 13.3514 9.01433 13.2241 9.00225 13.0931C8.99018 12.9621 9.00405 12.83 9.04305 12.7044C9.08213 12.5789 9.14558 12.4622 9.22973 12.3611L12.8597 8.0011H0.999761C0.734538 8.0011 0.480183 7.8958 0.292653 7.70822C0.105116 7.52072 -0.000244141 7.26632 -0.000244141 7.00112C-0.000244141 6.73592 0.105116 6.48152 0.292653 6.29402C0.480183 6.10652 0.734538 6.00115 0.999761 6.00115Z" fill="white"/>
</svg>
