<?xml version="1.0" encoding="UTF-8" standalone="no"?> <svg xmlns:rdf="http://www.w3.org/1999/02/22-rdf-syntax-ns#" xmlns="http://www.w3.org/2000/svg" xmlns:cc="http://creativecommons.org/ns#" xmlns:dc="http://purl.org/dc/elements/1.1/" id="svg2" xml:space="preserve" height="154.23" viewBox="0 0 1357.84 154.23467" width="1357.8" version="1.1"><metadata id="metadata8"></metadata><g id="layer2" transform="translate(0 -22.005)"><g id="g993" transform="matrix(1.3333 0 0 -1.3333 0 176.24)"><g fill="#FFFFFF"><path id="path14" d="m21.654 46.336v-20.88h16.24c6.1867-0.3871 11.6 3.8668 11.987 10.054v0.3867c0 6.5735-5.4133 10.827-13.533 10.827zm0 30.547v-18.56h15.08c5.4133-0.3868 10.44 3.48 10.826 8.8933v0.7735c0 5.0265-5.0265 8.8933-11.987 8.8933zm-21.654 12.373h29.387c13.147 0 17.787-0.3868 21.654-1.9332 7.3469-3.4801 11.6-10.44 11.6-18.561 0-7.7332-2.3199-11.6-10.054-15.467 8.1203-2.7066 13.534-10.44 12.761-18.947 0-12.76-10.054-21.266-24.747-21.266h-40.6v12.373h5.8v51.427h-5.8v12.374"></path><path id="path16" d="m114.84 49.042c0 6.5734-5.413 11.6-11.6 11.6h-0.386c-6.5737 0-11.987-5.0266-13.147-11.214zm14.7-17.013c-2.71-12.761-13.15-20.494-27.07-20.494-16.24 0-28.227 12.76-28.227 30.547s11.987 30.547 28.227 30.547c8.893 0 17.4-4.2531 22.427-11.987 3.867-6.5734 6.187-13.92 5.8-21.654h-41.761c1.5469-15.08 11.214-15.854 13.921-15.854 5.413-0.3872 10.44 3.4796 11.987 8.507l14.693 0.3867"></path><path id="path18" d="m177.87 50.975h26.68v-37.893h-8.507v11.986c-1.546-2.7059-3.48-5.0258-5.8-7.3461-5.026-4.2539-11.213-6.5739-17.4-6.5739-17.787 0-31.707 17.4-31.707 39.827s13.92 40.214 31.321 40.214c9.666 0.3863 18.173-5.027 22.813-13.147v11.987h8.12v-24.36h-8.506c-0.774 3.48-2.321 6.5734-4.254 9.2804-3.867 5.0266-10.053 8.1199-16.24 8.5067-9.28 0-23.2-8.1204-23.2-31.707 0-18.56 10.053-32.094 23.2-32.094 10.44 0.3871 18.947 8.1199 20.88 18.173 0.387 1.9332 0.387 4.2535 0.387 6.1867h-18.174l0.387 6.9602"></path><path id="path20" d="m252.88 42.856-5.41-0.774c-17.787-2.3199-23.587-5.4132-23.587-12.76 0.387-6.5739 5.8-11.214 11.987-11.214 8.506 0.3871 15.853 6.5742 17.013 15.081zm16.627-30.161h-16.627v10.44c-3.867-7.3473-11.6-11.6-19.72-11.6-9.667-0.7731-18.174 6.9597-18.947 16.627v1.1598c0 11.213 9.667 16.627 32.867 18.947l5.413 0.3867v5.8c0 6.5734-5.026 10.827-13.146 10.827s-12.374-2.7066-13.921-10.44h-8.893c0.773 4.6398 3.093 8.8933 6.573 11.987 4.254 3.4801 10.054 5.027 15.467 5.027 11.987 0 22.041-5.4137 22.041-20.107v-32.094h8.12l0.773-6.9602"></path><path id="path22" d="m293.87 60.256c2.707 3.8668 7.734 11.987 18.561 11.987 7.733 0 11.986-3.8668 13.533-11.987 1.547 2.7066 3.093 5.0269 5.414 7.3468 3.48 3.0934 7.733 5.027 12.373 5.027 8.893 0 13.92-5.8004 13.92-15.854v-36.733h8.12v-6.9602h-16.24v40.6c0 8.1203-2.707 11.987-8.507 11.987-10.053 0-15.467-11.987-15.467-16.24v-29.387h8.507v-6.9602h-17.013v41.76c0 7.3469-2.707 10.44-8.507 10.44-8.893 0-15.467-11.214-15.467-16.627v-29h8.507v-6.9602h-25.134v6.9602h8.507v44.854h-8.507v6.9601h17.014l0.386-11.214"></path><path id="path24" d="m390.92 37.442c0-9.6668 7.347-17.4 16.627-18.174 10.053 0 16.24 8.8941 16.24 23.201s-6.573 22.814-16.24 22.814c-8.507 0-17.014-9.2801-17.014-17.787zm-16.24 55.294h16.24v-33.641c2.32 4.2535 8.893 12.761 18.947 12.761 13.147 0 23.2-13.534 23.2-30.547 0-15.854-10.827-29.387-23.2-29.387-10.44 0-15.467 6.9601-18.947 11.6v-10.827h-16.627v6.9602h8.12v66.121h-7.733v6.9601"></path><path id="path26" d="m438.03 92.736h16.627v-73.081h7.733v-6.9602h-24.747v6.9602h8.507v66.507h-8.12v6.5734"></path><path id="path28" d="m510.73 46.722c0 5.4132-1.933 10.44-5.8 14.693-2.706 2.3199-6.187 3.8668-9.667 3.4801-7.346-0.3867-13.533-5.4137-15.466-12.373-0.387-1.9336-1.16-3.8668-1.16-5.8zm8.507-17.787c-0.773-3.4801-2.32-6.1872-4.64-8.893-4.64-5.4141-11.213-8.507-18.56-8.507-15.854 0-27.067 12.373-27.067 30.16 0 17.014 11.213 30.161 25.52 30.161s25.907-11.214 25.907-31.707h-42.147c0.773-8.5066 2.707-13.534 6.573-17.401 3.094-2.7058 6.96-4.2531 10.827-4.2531 6.574 0 10.827 3.093 13.92 10.054l9.667 0.3864"></path><path id="path30" d="m565.25 74.949-10.053-34.027h20.106zm-9.28 14.307h18.56l21.267-64.188h5.8v-12.373h-17.4l-5.027 16.627h-27.067l-5.027-16.627h-17.787v12.373h5.801l20.88 64.188"></path><path id="path32" d="m600.82 71.082h23.2v-11.214h-5.8l8.12-34.414 9.667 45.627h15.08l9.667-44.854 7.733 33.641h-5.8v11.214h23.2v-11.214h-5.026l-12.374-46.787h-15.467l-9.666 40.213-9.281-40.213h-15.466l-12.761 46.787h-5.026v11.214"></path><path id="path34" d="m726.88 40.148c-13.54-1.159-22.43-2.32-22.43-10.439 0-4.641 3.866-7.734 9.666-7.734 6.961 0 12.761 5.4129 13.147 12.373v0.3868 5.4132zm13.92-16.24h5.026v-11.213h-18.173v6.9602c-4.254-5.4129-10.827-8.1199-17.787-8.1199-11.6 0-20.494 7.7328-20.494 18.174 0 17.013 19.334 18.946 37.894 20.493 0 8.8937-3.093 11.6-10.44 11.6s-10.053-3.48-10.44-8.8933v-0.3867l-13.92 0.3867c0.773 11.6 10.053 18.947 23.973 18.947 16.241 0 24.747-7.3469 24.747-20.494l-0.386-27.454"></path><path id="path36" d="m773.24 61.802c3.867 7.3465 8.12 10.44 14.693 10.44 2.32 0 4.254-0.3863 6.574-0.7731v-13.534c-2.32 0.3868-4.64 0.7735-6.96 0.7735-7.347 0.3863-13.534-5.027-13.92-11.987v-22.427h6.96v-11.213h-27.067v11.213h5.8v35.574h-5.8v11.214h19.72v-9.2801"></path><path id="path38" d="m837.81 49.042c0 6.5734-5.413 11.6-11.6 11.6h-0.387c-6.573 0-11.987-5.0266-13.147-11.214zm15.08-17.013c-2.7-12.761-13.14-20.494-27.06-20.494-16.24 0-28.227 12.76-28.227 30.547s11.987 30.547 28.227 30.547c8.894 0 17.4-4.2531 22.427-11.987 3.867-6.5734 6.187-13.92 5.8-21.654h-41.76c1.546-15.08 11.213-15.854 13.92-15.854 5.413-0.3872 10.44 3.4796 11.987 8.507l14.693 0.3867"></path></g><g id="g971" fill="#FFFFFF" transform="translate(0,-16.5)"><path id="path40" d="m1001.9 114.82c0.55 0.095 1.03 0.272 1.44 0.537 0.41 0.264 0.74 0.619 0.99 1.068 0.24 0.446 0.37 1.023 0.37 1.737 0 0.986-0.28 1.79-0.83 2.409-0.54 0.62-1.43 0.929-2.65 0.929h-6.462v-6.816h5.422c0.6 0 1.18 0.046 1.72 0.136zm-0.54 8.871c1.86 0 3.31-0.454 4.36-1.368 1.05-0.913 1.57-2.163 1.57-3.749 0-1.19-0.26-2.228-0.8-3.123s-1.4-1.507-2.59-1.835v-0.053c0.57-0.11 1.03-0.291 1.39-0.547 0.35-0.258 0.63-0.563 0.84-0.918s0.37-0.752 0.47-1.19 0.18-0.894 0.23-1.37c0.04-0.476 0.06-0.96 0.08-1.45 0.02-0.495 0.07-0.978 0.14-1.451 0.07-0.475 0.18-0.929 0.32-1.355 0.13-0.431 0.34-0.808 0.61-1.137h-2.9c-0.18 0.201-0.31 0.476-0.37 0.82-0.07 0.347-0.11 0.736-0.12 1.167-0.02 0.426-0.04 0.887-0.06 1.382-0.02 0.491-0.07 0.974-0.16 1.45-0.08 0.475-0.17 0.925-0.28 1.355-0.11 0.427-0.28 0.801-0.52 1.122-0.23 0.321-0.55 0.574-0.93 0.766-0.38 0.193-0.89 0.287-1.53 0.287h-6.352v-8.349h-2.601v19.546h9.203"></path><path id="path42" d="m999.43 129.08c-8.741 0-15.854-7.112-15.854-15.853 0-8.742 7.113-15.854 15.854-15.854 8.737 0 15.857 7.1122 15.857 15.854 0 8.741-7.12 15.853-15.857 15.853zm0-34.8c-10.446 0-18.946 8.5002-18.946 18.947 0 10.446 8.5 18.946 18.946 18.946 10.447 0 18.947-8.5 18.947-18.946 0-10.447-8.5-18.947-18.947-18.947"></path></g><g fill="#FFFFFF"><path id="path44" d="m860.99 20.354h7.225v-7.0699h-7.225v7.0699"></path><path id="path46" d="m893.62 17.557c7.924 0 12.662 6.37 12.662 16.857 0 9.8652-4.972 16.158-12.662 16.158-7.535 0-12.196-6.293-12.196-16.469 0-10.409 4.583-16.546 12.196-16.546zm-18.954 16.702c0 12.739 7.846 21.518 19.187 21.518 11.109 0 19.188-9.0891 19.188-21.518 0-12.974-7.924-21.907-19.343-21.907-11.342 0-19.032 8.8558-19.032 21.907"></path><path id="path48" d="m929.36 45.523c2.02 4.3503 3.108 5.6707 4.972 7.457 2.175 1.8652 4.894 2.875 7.612 2.875 1.01 0 2.409-0.1555 4.506-0.4668v-6.1367c-2.097 0.3886-3.34 0.5437-4.427 0.5437-11.342 0-12.663-11.73-12.663-12.352v-19.265h7.147v-4.8941h-19.11v4.8941h5.982v32.006h-6.215v4.9719h12.196v-9.6328"></path><path id="path50" d="m979.23 39.696c0 4.5828-5.592 11.108-11.962 11.108-6.836 0-11.032-5.5926-11.032-14.682 0-9.2441 4.273-14.838 11.42-14.838 6.137 0 11.574 5.982 11.574 10.876zm0-16.159c-3.806-5.3598-8-7.1457-12.584-7.1457-10.021 0-16.935 8.234-16.935 20.12 0 11.264 6.759 19.265 16.236 19.265 7.691 0 11.109-4.8938 13.283-8.0793v7.4582h11.808v-4.9719h-5.826v-34.336c0-10.098-6.45-15.847-17.79-15.847-6.914 0-12.818 3.0301-15.614 7.9238-0.544 1.0102-1.01 2.0203-1.709 4.1172h6.758c2.486-5.0488 5.438-6.9129 11.031-6.9129 7.069 0 11.341 3.65 11.341 9.7098v8.7"></path></g></g></g></svg> 