<?xml version="1.0" encoding="UTF-8"?> <svg xmlns="http://www.w3.org/2000/svg" viewBox="0 0 164 48"><path fill="#fff" d="M61.89 18.354c.115.408-.03.64-.35.756l-3.14.93c-.377.117-.58 0-.697-.377-.494-1.6-1.541-2.471-3.46-2.471-2.965 0-3.954 1.744-3.954 4.1v5.406c0 2.355.99 4.1 3.954 4.1 2.442 0 3.721-1.134 3.721-3.606v-.697h-3.256c-.262 0-.436-.146-.436-.465v-2.995c0-.29.174-.465.436-.465h7.094c.29 0 .465.145.465.437v4.477c0 4.273-3.14 7.5-8.024 7.5-5.785 0-8.49-3.43-8.49-8.14v-5.698c0-4.71 2.705-8.14 8.49-8.14 4.68 0 6.803 2.674 7.646 5.348zM73.544 29.199c-.523 1.482-1.628 2.267-3.053 2.267-1.25 0-2.006-.61-2.006-1.744 0-1.25.872-1.745 2.5-1.948a18.377 18.377 0 012.559-.087v1.512zm4.273-5.495c0-3.605-2.267-5.524-6.308-5.524-3.838 0-6.018 1.686-6.454 3.983-.059.232-.03.407.29.494l3.198.814c.32.088.437.03.582-.32.378-.9.784-1.482 2.21-1.482 1.395 0 2.209.61 2.209 2.18v1.163a19.38 19.38 0 00-2.907.03c-4.478.32-6.31 2.063-6.31 4.97 0 2.995 1.949 4.943 4.972 4.943 1.92 0 3.46-.93 4.42-2.471v1.715c0 .262.174.436.464.436h3.198c.262 0 .436-.174.436-.436V23.704zM89.362 18.18c2.036 0 3.373 1.192 3.984 2.907 1.192-1.744 2.645-2.907 4.68-2.907 2.82 0 4.42 2.238 4.42 5.582v10.437c0 .262-.233.436-.524.436h-3.343c-.291 0-.524-.174-.524-.436v-9.681c0-1.454-.64-2.326-1.773-2.326-1.192 0-2.064.989-2.5 2.5V34.2c0 .29-.204.436-.407.436H89.77c-.262 0-.378-.174-.378-.436v-9.681c0-1.454-.64-2.326-1.774-2.326-1.22 0-2.093 1.047-2.5 2.53V34.2c0 .262-.145.436-.436.436h-3.547c-.29 0-.436-.174-.436-.436V18.936c0-.203.145-.407.436-.407h3.401c.292 0 .437.204.437.407v1.832c.96-1.338 2.355-2.588 4.39-2.588zM120.74 18.529c.087.378-.03.669-.378.756l-3.082.901c-.377.116-.581-.03-.697-.378-.436-1.454-1.192-2.616-3.344-2.616-2.646 0-3.489 1.744-3.489 4.1v5.406c0 2.355.96 4.1 3.49 4.1 2.267 0 3.139-1.28 3.488-2.878.087-.35.32-.524.698-.379l3.08.99c.35.115.466.377.38.755-.728 3.14-2.995 5.698-7.705 5.698-5.291 0-7.966-3.43-7.966-8.14v-5.698c0-4.71 2.733-8.14 7.966-8.14 4.594 0 6.745 2.442 7.559 5.523zM131.943 29.199c-.523 1.482-1.628 2.267-3.053 2.267-1.25 0-2.006-.61-2.006-1.744 0-1.25.872-1.745 2.5-1.948a18.393 18.393 0 012.559-.087v1.512zm4.274-5.495c0-3.605-2.268-5.524-6.31-5.524-3.837 0-6.018 1.686-6.454 3.983-.058.232-.028.407.292.494l3.197.814c.32.088.436.03.581-.32.379-.9.786-1.482 2.21-1.482 1.395 0 2.21.61 2.21 2.18v1.163a19.382 19.382 0 00-2.908.03c-4.477.32-6.308 2.063-6.308 4.97 0 2.995 1.947 4.943 4.97 4.943 1.92 0 3.46-.93 4.42-2.471v1.715c0 .262.175.436.465.436h3.198c.262 0 .437-.174.437-.436zM148.664 18.82v3.11c0 .378-.145.524-.524.524h-.465c-2.325 0-3.692 1.046-4.157 2.791V34.2c0 .29-.204.436-.378.436h-3.663c-.174 0-.378-.145-.378-.436V18.936c0-.262.174-.407.436-.407h3.314c.35 0 .437.233.437.465v2.152c.756-1.425 2.18-2.82 4.68-2.82.581 0 .698.087.698.494zM157.197 21.727c1.92 0 2.792 1.221 2.792 2.79v.554h-5.611v-.553c0-1.57.9-2.79 2.82-2.79zm6.048 6.193c.61 0 .755-.291.755-.728v-2.558c0-3.576-2.209-6.454-6.744-6.454-4.768 0-7.065 2.878-7.065 6.541v3.722c0 3.78 2.442 6.541 7.093 6.541 3.082 0 5.554-1.28 6.542-3.518.204-.436.174-.668-.29-.901l-2.298-1.163c-.465-.203-.58-.145-.843.29-.523.96-1.075 1.716-3.081 1.716-2.064 0-2.936-1.192-2.936-2.878v-.61z"></path><g><path fill="#fff" d="M32.545 29.625c0 6.9-5.07 12.112-12.958 12.112-9.342 0-13.709-5.54-13.709-13.145V19.39c0-7.605 4.367-13.145 13.71-13.145 7.558 0 10.985 4.32 12.347 8.638.187.658-.048 1.033-.564 1.22l-5.07 1.503c-.61.188-.94 0-1.127-.61-.798-2.582-2.488-3.99-5.587-3.99-4.789 0-6.385 2.816-6.385 6.619v8.732c0 3.803 1.596 6.62 6.385 6.62 3.944 0 6.01-1.832 6.01-5.822v-1.127h-5.259c-.422 0-.704-.234-.704-.75v-4.836c0-.47.282-.752.704-.752h11.455c.47 0 .752.235.752.705zM.591.35A.591.591 0 000 .94v28.38c0 10.124 8.207 18.33 18.33 18.33h1.77c10.124 0 18.33-8.206 18.33-18.33V18.681C38.43 8.558 30.224.35 20.1.35z"></path></g></svg> 