<svg width="38" height="37" viewBox="0 0 38 37" fill="none" xmlns="http://www.w3.org/2000/svg">
<path d="M24.7677 26.3198H15.7759C15.4235 26.3198 15.1383 25.995 15.1383 25.5944C15.1383 25.1938 15.4235 24.869 15.7759 24.869H24.7677C24.7617 23.3957 23.7042 22.1924 22.4037 22.1924H18.3089C18.1949 22.1924 18.0833 22.1584 17.985 22.0921C10.7953 17.2758 7.00317 21.7276 5.70636 23.8647C5.50653 24.1947 5.10917 24.2767 4.81884 24.0495C4.52852 23.8218 4.45594 23.3706 4.65622 23.0405C5.8189 21.1238 10.2376 15.3241 18.482 20.741H22.4047C24.4085 20.741 26.0388 22.595 26.0388 24.8742C26.0388 25.2596 25.906 25.6226 25.6662 25.8952C25.4287 26.1673 25.109 26.3188 24.7681 26.3188L24.7677 26.3198Z" fill="#25413D"/>
<mask id="mask0_3_3" style="mask-type:luminance" maskUnits="userSpaceOnUse" x="11" y="15" width="27" height="18">
<path d="M11.3562 15.1064H38V32.0861H11.3562V15.1064Z" fill="white"/>
</mask>
<g mask="url(#mask0_3_3)">
<path d="M23.1047 31.9821H12.0457C11.6929 31.9821 11.4077 31.6578 11.4077 31.2572C11.4077 30.8562 11.6929 30.5318 12.0457 30.5318H23.1047C24.4199 30.5318 25.6644 29.96 26.6102 28.9217L36.6839 17.8644C36.6977 17.8498 36.7036 17.8315 36.7036 17.8101C36.7036 17.7882 36.6977 17.7699 36.6839 17.7547C36.0692 17.0554 35.2511 16.6705 34.3801 16.6705C33.6621 16.6705 32.9813 16.9317 32.4103 17.4262L25.296 23.5816C25.0162 23.8244 24.6152 23.7618 24.402 23.4437C24.1893 23.1257 24.2435 22.6697 24.5233 22.4274L31.6376 16.2726C32.4328 15.5842 33.381 15.2197 34.3801 15.2197C35.5915 15.2197 36.7303 15.7555 37.5865 16.7285C37.8433 17.0204 37.983 17.4085 37.9798 17.8216C37.9766 18.2342 37.8314 18.6196 37.57 18.9068L27.4964 29.9652C26.3112 31.2661 24.7516 31.9821 23.1047 31.9821Z" fill="#25413D"/>
</g>
<mask id="mask1_3_3" style="mask-type:luminance" maskUnits="userSpaceOnUse" x="0" y="21" width="14" height="16">
<path d="M0 21.3902H13.8258V37H0V21.3902Z" fill="white"/>
</mask>
<g mask="url(#mask1_3_3)">
<path d="M9.74564 37.024C9.5821 37.024 9.41949 36.9535 9.29453 36.812L0.207167 26.4812C0.0877293 26.3449 0.0206604 26.16 0.0206604 25.9678C0.0206604 25.7756 0.0877293 25.5907 0.207167 25.4544L3.57485 21.6263C3.82475 21.3432 4.22808 21.3432 4.47706 21.6263L13.564 31.9571C13.6834 32.0929 13.7505 32.2777 13.7505 32.4699C13.7505 32.6621 13.6834 32.8475 13.564 32.9833L10.1963 36.812C10.0718 36.9535 9.90826 37.024 9.74472 37.024H9.74564ZM1.56049 25.9678L9.74564 35.2734L12.2107 32.471L4.0255 23.1654L1.56049 25.9678Z" fill="#25413D"/>
</g>
<path d="M19.0002 18.3684C18.8312 18.3684 18.6686 18.2921 18.5487 18.1564L11.0903 9.67591C9.14663 7.46518 9.14663 3.86994 11.0903 1.66026C12.032 0.589631 13.2842 0 14.616 0C15.9477 0 17.1986 0.589631 18.1407 1.66026L19.0002 2.63741L19.8597 1.66026C20.8019 0.589631 22.0537 0 23.3854 0C24.7172 0 25.9694 0.589631 26.9111 1.66026C27.8529 2.7309 28.371 4.15458 28.371 5.66861C28.371 7.18264 27.8529 8.60527 26.9111 9.67591L19.4523 18.1564C19.3328 18.2921 19.1702 18.3684 19.0012 18.3684H19.0002ZM14.616 1.44979C13.6246 1.44979 12.693 1.88849 11.992 2.68546C10.5454 4.33006 10.5454 7.00559 11.992 8.64966L18.9993 16.6167L26.0066 8.64966C26.7076 7.8527 27.0935 6.79355 27.0935 5.66756C27.0935 4.54157 26.7076 3.48191 26.0066 2.68494C25.3065 1.88797 24.3745 1.44979 23.3841 1.44979C22.3936 1.44979 21.4611 1.88849 20.761 2.68494L19.4509 4.17442C19.2019 4.45696 18.7977 4.45696 18.5487 4.17442L17.2385 2.68494C16.5375 1.88797 15.6064 1.44927 14.616 1.44927V1.44979Z" fill="#25413D"/>
<path d="M17.6883 12.3347C17.6837 12.3347 17.6795 12.3347 17.6749 12.3347C17.482 12.3306 17.3015 12.2271 17.1834 12.0527L15.5338 9.62681C15.3183 9.30928 15.3693 8.85439 15.6486 8.60945C15.9275 8.36503 16.3281 8.423 16.543 8.74002L17.7099 10.4562L21.474 5.38293C21.7014 5.07636 22.1038 5.03772 22.3725 5.29571C22.6422 5.55423 22.6766 6.01225 22.4492 6.31778L18.1757 12.0773C18.0544 12.2407 17.8757 12.3347 17.6878 12.3347H17.6883Z" fill="#25413D"/>
<path d="M24.7677 26.3198H15.7759C15.4235 26.3198 15.1383 25.995 15.1383 25.5944C15.1383 25.1938 15.4235 24.869 15.7759 24.869H24.7677C24.7617 23.3957 23.7042 22.1924 22.4037 22.1924H18.3089C18.1949 22.1924 18.0833 22.1584 17.985 22.0921C10.7953 17.2758 7.00317 21.7276 5.70636 23.8647C5.50653 24.1947 5.10917 24.2767 4.81884 24.0495C4.52852 23.8218 4.45594 23.3706 4.65622 23.0405C5.8189 21.1238 10.2376 15.3241 18.482 20.741H22.4047C24.4085 20.741 26.0388 22.595 26.0388 24.8742C26.0388 25.2596 25.906 25.6226 25.6662 25.8952C25.4287 26.1673 25.109 26.3188 24.7681 26.3188L24.7677 26.3198Z" fill="#25413D"/>
<mask id="mask2_3_3" style="mask-type:luminance" maskUnits="userSpaceOnUse" x="11" y="15" width="27" height="18">
<path d="M11.3562 15.1064H38V32.0861H11.3562V15.1064Z" fill="white"/>
</mask>
<g mask="url(#mask2_3_3)">
<path d="M23.1047 31.9821H12.0457C11.6929 31.9821 11.4077 31.6578 11.4077 31.2572C11.4077 30.8562 11.6929 30.5318 12.0457 30.5318H23.1047C24.4199 30.5318 25.6644 29.96 26.6102 28.9217L36.6839 17.8644C36.6977 17.8498 36.7036 17.8315 36.7036 17.8101C36.7036 17.7882 36.6977 17.7699 36.6839 17.7547C36.0692 17.0554 35.2511 16.6705 34.3801 16.6705C33.6621 16.6705 32.9813 16.9317 32.4103 17.4262L25.296 23.5816C25.0162 23.8244 24.6152 23.7618 24.402 23.4437C24.1893 23.1257 24.2435 22.6697 24.5233 22.4274L31.6376 16.2726C32.4328 15.5842 33.381 15.2197 34.3801 15.2197C35.5915 15.2197 36.7303 15.7555 37.5865 16.7285C37.8433 17.0204 37.983 17.4085 37.9798 17.8216C37.9766 18.2342 37.8314 18.6196 37.57 18.9068L27.4964 29.9652C26.3112 31.2661 24.7516 31.9821 23.1047 31.9821Z" fill="#25413D"/>
</g>
<mask id="mask3_3_3" style="mask-type:luminance" maskUnits="userSpaceOnUse" x="0" y="21" width="14" height="16">
<path d="M0 21.3902H13.8258V37H0V21.3902Z" fill="white"/>
</mask>
<g mask="url(#mask3_3_3)">
<path d="M9.74564 37.024C9.5821 37.024 9.41949 36.9535 9.29453 36.812L0.207167 26.4812C0.0877293 26.3449 0.0206604 26.16 0.0206604 25.9678C0.0206604 25.7756 0.0877293 25.5907 0.207167 25.4544L3.57485 21.6263C3.82475 21.3432 4.22808 21.3432 4.47706 21.6263L13.564 31.9571C13.6834 32.0929 13.7505 32.2777 13.7505 32.4699C13.7505 32.6621 13.6834 32.8475 13.564 32.9833L10.1963 36.812C10.0718 36.9535 9.90826 37.024 9.74472 37.024H9.74564ZM1.56049 25.9678L9.74564 35.2734L12.2107 32.471L4.0255 23.1654L1.56049 25.9678Z" fill="#25413D"/>
</g>
<path d="M19.0002 18.3684C18.8312 18.3684 18.6686 18.2921 18.5487 18.1564L11.0903 9.67591C9.14663 7.46518 9.14663 3.86994 11.0903 1.66026C12.032 0.589631 13.2842 0 14.616 0C15.9477 0 17.1986 0.589631 18.1407 1.66026L19.0002 2.63741L19.8597 1.66026C20.8019 0.589631 22.0537 0 23.3854 0C24.7172 0 25.9694 0.589631 26.9111 1.66026C27.8529 2.7309 28.371 4.15458 28.371 5.66861C28.371 7.18264 27.8529 8.60527 26.9111 9.67591L19.4523 18.1564C19.3328 18.2921 19.1702 18.3684 19.0012 18.3684H19.0002ZM14.616 1.44979C13.6246 1.44979 12.693 1.88849 11.992 2.68546C10.5454 4.33006 10.5454 7.00559 11.992 8.64966L18.9993 16.6167L26.0066 8.64966C26.7076 7.8527 27.0935 6.79355 27.0935 5.66756C27.0935 4.54157 26.7076 3.48191 26.0066 2.68494C25.3065 1.88797 24.3745 1.44979 23.3841 1.44979C22.3936 1.44979 21.4611 1.88849 20.761 2.68494L19.4509 4.17442C19.2019 4.45696 18.7977 4.45696 18.5487 4.17442L17.2385 2.68494C16.5375 1.88797 15.6064 1.44927 14.616 1.44927V1.44979Z" fill="#25413D"/>
<path d="M17.6883 12.3347C17.6837 12.3347 17.6795 12.3347 17.6749 12.3347C17.482 12.3306 17.3015 12.2271 17.1834 12.0527L15.5338 9.62681C15.3183 9.30928 15.3693 8.85439 15.6486 8.60945C15.9275 8.36503 16.3281 8.423 16.543 8.74002L17.7099 10.4562L21.474 5.38293C21.7014 5.07636 22.1038 5.03772 22.3725 5.29571C22.6422 5.55423 22.6766 6.01225 22.4492 6.31778L18.1757 12.0773C18.0544 12.2407 17.8757 12.3347 17.6878 12.3347H17.6883Z" fill="#25413D"/>
</svg>
