<svg width="11" height="13" viewBox="0 0 11 13" fill="none" xmlns="http://www.w3.org/2000/svg">
<path d="M9.16568 12.9981H1.83235C0.822282 12.9981 0 12.203 0 11.2264V1.77169C0 0.79506 0.822282 0 1.83235 0H7.33136C7.49344 0 7.6496 0.0630697 7.76424 0.173919L10.8201 3.12864C10.9348 3.23949 11 3.39047 11 3.54719V11.2283C11 12.2049 10.1777 13 9.16765 13L9.16568 12.9981ZM1.83235 1.18112C1.49632 1.18112 1.22156 1.44678 1.22156 1.77169V11.2245C1.22156 11.5494 1.49632 11.8151 1.83235 11.8151H9.16568C9.50171 11.8151 9.77646 11.5494 9.77646 11.2245V3.78991L7.07835 1.18112H1.83235Z" fill="#0569FF"/>
<path d="M10.3872 4.7264H7.94214C6.93208 4.7264 6.10979 3.93134 6.10979 2.95472V0.590562C6.10979 0.263746 6.38257 0 6.72057 0C7.05858 0 7.33136 0.263746 7.33136 0.590562V2.95472C7.33136 3.27962 7.60611 3.54528 7.94214 3.54528H10.3872C10.7252 3.54528 10.998 3.80903 10.998 4.13584C10.998 4.46266 10.7252 4.7264 10.3872 4.7264Z" fill="#0569FF"/>
<path d="M4.27745 5.31697H3.05588C2.71788 5.31697 2.4451 5.05322 2.4451 4.7264C2.4451 4.39959 2.71788 4.13584 3.05588 4.13584H4.27745C4.61545 4.13584 4.88823 4.39959 4.88823 4.7264C4.88823 5.05322 4.61545 5.31697 4.27745 5.31697Z" fill="#0569FF"/>
<path d="M7.94411 7.68112H3.05588C2.71788 7.68112 2.4451 7.41738 2.4451 7.09056C2.4451 6.76375 2.71788 6.5 3.05588 6.5H7.94411C8.28212 6.5 8.5549 6.76375 8.5549 7.09056C8.5549 7.41738 8.28212 7.68112 7.94411 7.68112Z" fill="#0569FF"/>
<path d="M7.94411 10.0434H3.05588C2.71788 10.0434 2.4451 9.77962 2.4451 9.45281C2.4451 9.12599 2.71788 8.86225 3.05588 8.86225H7.94411C8.28212 8.86225 8.5549 9.12599 8.5549 9.45281C8.5549 9.77962 8.28212 10.0434 7.94411 10.0434Z" fill="#0569FF"/>
</svg>
