<svg width="51" height="45" viewBox="0 0 51 45" fill="none" xmlns="http://www.w3.org/2000/svg">
<path d="M25.2588 6.42754C25.9248 6.42754 26.4608 5.94826 26.4608 5.35698V1.07056C26.4608 0.479275 25.9248 0 25.2588 0C24.5932 0 24.0567 0.479275 24.0567 1.07056V5.35698C24.0567 5.94826 24.5932 6.42754 25.2588 6.42754Z" fill="#24534D"/>
<mask id="mask0_3_146" style="mask-type:luminance" maskUnits="userSpaceOnUse" x="23" y="38" width="4" height="7">
<path d="M23.9982 38.5386H26.5169V45H23.9982V38.5386Z" fill="white"/>
</mask>
<g mask="url(#mask0_3_146)">
<path d="M24.0568 39.6365V43.9211C24.0568 44.5123 24.5932 44.9916 25.2588 44.9916C25.9249 44.9916 26.4609 44.5123 26.4609 43.9211V39.6365C26.4609 39.0437 25.9249 38.5645 25.2588 38.5645C24.5932 38.5645 24.0568 39.0437 24.0568 39.6365Z" fill="#24534D"/>
</g>
<path d="M10.7996 11.1334C11.0353 11.3433 11.3437 11.4481 11.6504 11.4481C11.9589 11.4481 12.2669 11.3433 12.5009 11.1334C12.9701 10.7151 12.9701 10.0366 12.5009 9.61824L9.09877 6.58829C8.62908 6.17036 7.86721 6.17036 7.39751 6.58829C6.92825 7.00661 6.92825 7.68514 7.39751 8.10346L10.7996 11.1334Z" fill="#24534D"/>
<path d="M39.718 33.8586C39.2487 33.4403 38.4865 33.4403 38.0172 33.8586C37.5475 34.2765 37.5475 34.9554 38.0172 35.3734L41.4193 38.4033C41.655 38.6117 41.9634 38.7165 42.2697 38.7165C42.5781 38.7165 42.8844 38.6117 43.1201 38.4033C43.5898 37.9854 43.5898 37.3065 43.1201 36.8885L39.718 33.8586Z" fill="#24534D"/>
<path d="M1.20205 23.5664H6.0128C6.67884 23.5664 7.21699 23.0871 7.21699 22.4958C7.21699 21.9045 6.67884 21.4252 6.0128 21.4252H1.20205C0.538141 21.4252 0 21.9045 0 22.4958C0 23.0871 0.538141 23.5664 1.20205 23.5664Z" fill="#24534D"/>
<mask id="mask1_3_146" style="mask-type:luminance" maskUnits="userSpaceOnUse" x="43" y="21" width="8" height="3">
<path d="M43.272 21.3731H50.527V23.6163H43.272V21.3731Z" fill="white"/>
</mask>
<g mask="url(#mask1_3_146)">
<path d="M44.5031 23.5664H49.3156C49.9795 23.5664 50.5176 23.0871 50.5176 22.4958C50.5176 21.9045 49.9795 21.4252 49.3156 21.4252H44.5031C43.8392 21.4252 43.301 21.9045 43.301 22.4958C43.301 23.0871 43.8392 23.5664 44.5031 23.5664Z" fill="#24534D"/>
</g>
<path d="M10.7996 33.8586L7.39751 36.8885C6.92825 37.3065 6.92825 37.9854 7.39751 38.4033C7.63322 38.6117 7.93993 38.7165 8.24836 38.7165C8.55636 38.7165 8.86307 38.6117 9.09877 38.4033L12.5009 35.3734C12.9701 34.9554 12.9701 34.2765 12.5009 33.8586C12.0312 33.4403 11.2693 33.4403 10.7996 33.8586Z" fill="#24534D"/>
<path d="M38.8676 11.4481C39.1739 11.4481 39.4823 11.3433 39.718 11.1334L43.1201 8.10346C43.5898 7.68514 43.5898 7.00661 43.1201 6.58829C42.6508 6.17036 41.8885 6.17036 41.4193 6.58829L38.0172 9.61824C37.5475 10.0366 37.5475 10.7151 38.0172 11.1334C38.2507 11.3433 38.5592 11.4481 38.8676 11.4481Z" fill="#24534D"/>
<path d="M10.2024 18.9515C10.0416 19.3923 10.2182 19.8754 10.6387 20.1482L18.5312 25.2549L15.5158 33.5153C15.355 33.958 15.5316 34.4411 15.9538 34.7139C16.3765 34.9867 16.9458 34.9867 17.3685 34.7139L25.2588 29.6072L33.1495 34.7139C33.3617 34.8503 33.609 34.9185 33.8566 34.9185C34.106 34.9185 34.3537 34.8503 34.5637 34.7139C34.986 34.4411 35.1626 33.958 35.0018 33.5153L31.9864 25.2549L39.8793 20.1482C40.2993 19.8754 40.4764 19.3923 40.3152 18.9515C40.1539 18.5088 39.6923 18.2117 39.1722 18.2117H29.4172L26.4039 9.94896C26.2431 9.50816 25.7794 9.20909 25.2588 9.20909C24.7382 9.20909 24.2749 9.50816 24.1158 9.94896L21.1004 18.2117H11.3458C10.8252 18.2117 10.3637 18.5088 10.2024 18.9515ZM21.9748 20.3528C22.4971 20.3528 22.9569 20.0556 23.1178 19.6129L25.2588 13.747L27.3998 19.6129C27.5611 20.0556 28.0205 20.3528 28.5432 20.3528H35.4693L29.8651 23.9794C29.445 24.2521 29.2679 24.7352 29.4292 25.176L31.568 31.0435L25.9659 27.4169C25.7537 27.2806 25.5065 27.2124 25.2588 27.2124C25.0115 27.2124 24.7639 27.2806 24.5517 27.4169L18.9495 31.0435L21.0888 25.176C21.2497 24.7352 21.073 24.2521 20.6525 23.9794L15.0487 20.3528H21.9748Z" fill="#24534D"/>
<path d="M25.2588 6.42754C25.9248 6.42754 26.4608 5.94826 26.4608 5.35698V1.07056C26.4608 0.479275 25.9248 0 25.2588 0C24.5932 0 24.0567 0.479275 24.0567 1.07056V5.35698C24.0567 5.94826 24.5932 6.42754 25.2588 6.42754Z" fill="#24534D"/>
<mask id="mask2_3_146" style="mask-type:luminance" maskUnits="userSpaceOnUse" x="23" y="38" width="4" height="7">
<path d="M23.9982 38.5386H26.5169V45H23.9982V38.5386Z" fill="white"/>
</mask>
<g mask="url(#mask2_3_146)">
<path d="M24.0568 39.6365V43.9211C24.0568 44.5123 24.5932 44.9916 25.2588 44.9916C25.9249 44.9916 26.4609 44.5123 26.4609 43.9211V39.6365C26.4609 39.0437 25.9249 38.5645 25.2588 38.5645C24.5932 38.5645 24.0568 39.0437 24.0568 39.6365Z" fill="#24534D"/>
</g>
<path d="M10.7996 11.1334C11.0353 11.3433 11.3437 11.4481 11.6504 11.4481C11.9589 11.4481 12.2669 11.3433 12.5009 11.1334C12.9701 10.7151 12.9701 10.0366 12.5009 9.61824L9.09877 6.58829C8.62908 6.17036 7.86721 6.17036 7.39751 6.58829C6.92825 7.00661 6.92825 7.68514 7.39751 8.10346L10.7996 11.1334Z" fill="#24534D"/>
<path d="M39.718 33.8586C39.2487 33.4403 38.4865 33.4403 38.0172 33.8586C37.5475 34.2765 37.5475 34.9554 38.0172 35.3734L41.4193 38.4033C41.655 38.6117 41.9634 38.7165 42.2697 38.7165C42.5781 38.7165 42.8844 38.6117 43.1201 38.4033C43.5898 37.9854 43.5898 37.3065 43.1201 36.8885L39.718 33.8586Z" fill="#24534D"/>
<path d="M1.20205 23.5664H6.0128C6.67884 23.5664 7.21699 23.0871 7.21699 22.4958C7.21699 21.9045 6.67884 21.4252 6.0128 21.4252H1.20205C0.538141 21.4252 0 21.9045 0 22.4958C0 23.0871 0.538141 23.5664 1.20205 23.5664Z" fill="#24534D"/>
<mask id="mask3_3_146" style="mask-type:luminance" maskUnits="userSpaceOnUse" x="43" y="21" width="8" height="3">
<path d="M43.272 21.3731H50.527V23.6163H43.272V21.3731Z" fill="white"/>
</mask>
<g mask="url(#mask3_3_146)">
<path d="M44.5031 23.5664H49.3156C49.9795 23.5664 50.5176 23.0871 50.5176 22.4958C50.5176 21.9045 49.9795 21.4252 49.3156 21.4252H44.5031C43.8392 21.4252 43.301 21.9045 43.301 22.4958C43.301 23.0871 43.8392 23.5664 44.5031 23.5664Z" fill="#24534D"/>
</g>
<path d="M10.7996 33.8586L7.39751 36.8885C6.92825 37.3065 6.92825 37.9854 7.39751 38.4033C7.63322 38.6117 7.93993 38.7165 8.24836 38.7165C8.55636 38.7165 8.86307 38.6117 9.09877 38.4033L12.5009 35.3734C12.9701 34.9554 12.9701 34.2765 12.5009 33.8586C12.0312 33.4403 11.2693 33.4403 10.7996 33.8586Z" fill="#24534D"/>
<path d="M38.8676 11.4481C39.1739 11.4481 39.4823 11.3433 39.718 11.1334L43.1201 8.10346C43.5898 7.68514 43.5898 7.00661 43.1201 6.58829C42.6508 6.17036 41.8885 6.17036 41.4193 6.58829L38.0172 9.61824C37.5475 10.0366 37.5475 10.7151 38.0172 11.1334C38.2507 11.3433 38.5592 11.4481 38.8676 11.4481Z" fill="#24534D"/>
<path d="M10.2024 18.9515C10.0416 19.3923 10.2182 19.8754 10.6387 20.1482L18.5312 25.2549L15.5158 33.5153C15.355 33.958 15.5316 34.4411 15.9538 34.7139C16.3765 34.9867 16.9458 34.9867 17.3685 34.7139L25.2588 29.6072L33.1495 34.7139C33.3617 34.8503 33.609 34.9185 33.8566 34.9185C34.106 34.9185 34.3537 34.8503 34.5637 34.7139C34.986 34.4411 35.1626 33.958 35.0018 33.5153L31.9864 25.2549L39.8793 20.1482C40.2993 19.8754 40.4764 19.3923 40.3152 18.9515C40.1539 18.5088 39.6923 18.2117 39.1722 18.2117H29.4172L26.4039 9.94896C26.2431 9.50816 25.7794 9.20909 25.2588 9.20909C24.7382 9.20909 24.2749 9.50816 24.1158 9.94896L21.1004 18.2117H11.3458C10.8252 18.2117 10.3637 18.5088 10.2024 18.9515ZM21.9748 20.3528C22.4971 20.3528 22.9569 20.0556 23.1178 19.6129L25.2588 13.747L27.3998 19.6129C27.5611 20.0556 28.0205 20.3528 28.5432 20.3528H35.4693L29.8651 23.9794C29.445 24.2521 29.2679 24.7352 29.4292 25.176L31.568 31.0435L25.9659 27.4169C25.7537 27.2806 25.5065 27.2124 25.2588 27.2124C25.0115 27.2124 24.7639 27.2806 24.5517 27.4169L18.9495 31.0435L21.0888 25.176C21.2497 24.7352 21.073 24.2521 20.6525 23.9794L15.0487 20.3528H21.9748Z" fill="#24534D"/>
</svg>
