<svg width="37" height="33" viewBox="0 0 37 33" fill="none" xmlns="http://www.w3.org/2000/svg">
<path d="M16.0246 6.45451C16.1547 6.60101 16.3713 6.67462 16.5444 6.67462C16.6744 6.67462 16.8044 6.63782 16.9345 6.56457C17.238 6.38091 17.2811 6.05111 17.108 5.7942L15.2879 3.63066C15.0713 3.37375 14.6812 3.33731 14.3781 3.48381C14.0745 3.66711 13.988 4.03407 14.2046 4.25418L16.0246 6.45451Z" fill="#25413D"/>
<mask id="mask0_3_31" style="mask-type:luminance" maskUnits="userSpaceOnUse" x="0" y="0" width="37" height="33">
<path d="M0 0H37V33H0V0Z" fill="white"/>
</mask>
<g mask="url(#mask0_3_31)">
<path d="M31.1041 18.5932L32.8372 8.5448C33.1407 6.85792 32.7941 5.4644 31.7973 4.47392C30.8875 3.59386 29.5441 3.1172 27.811 3.1172H22.8709C21.6144 1.28347 19.2742 0 16.5443 0C13.8144 0 11.4316 1.28347 10.2182 3.15401H5.23509C3.54505 3.15401 2.15857 3.63066 1.24833 4.51073C0.251955 5.4644 -0.0946639 6.85792 0.208468 8.5816L3.6316 28.2749C3.97822 30.2552 5.66825 31.4286 8.18156 31.4286H22.7843C24.2574 32.4187 26.1209 33.0054 28.1576 33.0054C33.0107 33.0054 36.9105 29.6685 36.9105 25.5976C36.9535 22.3703 34.4837 19.6201 31.1041 18.5932ZM16.5443 1.10017C19.7944 1.10017 22.4808 3.33731 22.4808 6.12435C22.4808 8.9114 19.8379 11.1485 16.5443 11.1485C13.2512 11.1485 10.6079 8.9114 10.6079 6.12435C10.6079 3.33731 13.2512 1.10017 16.5443 1.10017ZM4.93153 28.0913L1.5084 8.39794C1.24833 7.04122 1.5084 5.94105 2.24512 5.20749C2.89487 4.58397 3.93516 4.25418 5.23509 4.25418H9.61153C9.39494 4.84089 9.26491 5.4644 9.26491 6.12435C9.26491 9.49811 12.5145 12.2487 16.5013 12.2487C20.4876 12.2487 23.7376 9.49811 23.7376 6.12435C23.7376 5.4644 23.6076 4.84089 23.391 4.25418H27.7675C29.0674 4.25418 30.1073 4.58397 30.7574 5.20749C31.4937 5.90425 31.7538 7.00442 31.4937 8.39794L29.7606 18.2998C29.2405 18.2266 28.6773 18.153 28.1141 18.153C23.9977 18.153 20.5742 20.537 19.6213 23.7639H8.78825C8.44163 23.7639 8.13808 24.0208 8.13808 24.3141V27.5046C8.13808 27.7979 8.44163 28.0548 8.78825 28.0548H19.8809C20.2275 28.8981 20.7477 29.6685 21.3979 30.3284H8.18156C6.36149 30.3284 5.1916 29.5584 4.93153 28.0913ZM19.5778 26.9547H9.48149V24.9008H19.4478C19.4043 25.1209 19.4043 25.341 19.4043 25.5976C19.4043 26.0742 19.4912 26.5145 19.5778 26.9547ZM28.2006 31.9052C24.0843 31.9052 20.7042 29.0814 20.7042 25.5976C20.7042 22.1138 24.0408 19.2899 28.1576 19.2899C32.2739 19.2899 35.6105 22.1138 35.6105 25.5976C35.6536 29.0814 32.3174 31.9052 28.2006 31.9052Z" fill="#25413D"/>
</g>
<path d="M30.5839 26.111L28.8508 27.5778V22.2603C28.8508 21.9669 28.5473 21.7104 28.2007 21.7104C27.854 21.7104 27.5509 21.9669 27.5509 22.2603V27.5778L25.8174 26.111C25.5573 25.8909 25.1676 25.8909 24.9076 26.111C24.6475 26.3312 24.6475 26.6613 24.9076 26.8811L27.7675 29.3015C27.8975 29.4116 28.0706 29.4484 28.2441 29.4484C28.4172 29.4484 28.5908 29.4116 28.7208 29.3015L31.5807 26.8811C31.8408 26.6613 31.8408 26.3312 31.5807 26.111C31.2341 25.8909 30.844 25.8909 30.5839 26.111Z" fill="#25413D"/>
<path d="M16.0246 6.45451C16.1547 6.60101 16.3713 6.67462 16.5444 6.67462C16.6744 6.67462 16.8044 6.63782 16.9345 6.56457C17.238 6.38091 17.2811 6.05111 17.108 5.7942L15.2879 3.63066C15.0713 3.37375 14.6812 3.33731 14.3781 3.48381C14.0745 3.66711 13.988 4.03407 14.2046 4.25418L16.0246 6.45451Z" fill="#25413D"/>
<mask id="mask1_3_31" style="mask-type:luminance" maskUnits="userSpaceOnUse" x="0" y="0" width="37" height="33">
<path d="M0 0H37V33H0V0Z" fill="white"/>
</mask>
<g mask="url(#mask1_3_31)">
<path d="M31.1041 18.5932L32.8372 8.5448C33.1407 6.85792 32.7941 5.4644 31.7973 4.47392C30.8875 3.59386 29.5441 3.1172 27.811 3.1172H22.8709C21.6144 1.28347 19.2742 0 16.5443 0C13.8144 0 11.4316 1.28347 10.2182 3.15401H5.23509C3.54505 3.15401 2.15857 3.63066 1.24833 4.51073C0.251955 5.4644 -0.0946639 6.85792 0.208468 8.5816L3.6316 28.2749C3.97822 30.2552 5.66825 31.4286 8.18156 31.4286H22.7843C24.2574 32.4187 26.1209 33.0054 28.1576 33.0054C33.0107 33.0054 36.9105 29.6685 36.9105 25.5976C36.9535 22.3703 34.4837 19.6201 31.1041 18.5932ZM16.5443 1.10017C19.7944 1.10017 22.4808 3.33731 22.4808 6.12435C22.4808 8.9114 19.8379 11.1485 16.5443 11.1485C13.2512 11.1485 10.6079 8.9114 10.6079 6.12435C10.6079 3.33731 13.2512 1.10017 16.5443 1.10017ZM4.93153 28.0913L1.5084 8.39794C1.24833 7.04122 1.5084 5.94105 2.24512 5.20749C2.89487 4.58397 3.93516 4.25418 5.23509 4.25418H9.61153C9.39494 4.84089 9.26491 5.4644 9.26491 6.12435C9.26491 9.49811 12.5145 12.2487 16.5013 12.2487C20.4876 12.2487 23.7376 9.49811 23.7376 6.12435C23.7376 5.4644 23.6076 4.84089 23.391 4.25418H27.7675C29.0674 4.25418 30.1073 4.58397 30.7574 5.20749C31.4937 5.90425 31.7538 7.00442 31.4937 8.39794L29.7606 18.2998C29.2405 18.2266 28.6773 18.153 28.1141 18.153C23.9977 18.153 20.5742 20.537 19.6213 23.7639H8.78825C8.44163 23.7639 8.13808 24.0208 8.13808 24.3141V27.5046C8.13808 27.7979 8.44163 28.0548 8.78825 28.0548H19.8809C20.2275 28.8981 20.7477 29.6685 21.3979 30.3284H8.18156C6.36149 30.3284 5.1916 29.5584 4.93153 28.0913ZM19.5778 26.9547H9.48149V24.9008H19.4478C19.4043 25.1209 19.4043 25.341 19.4043 25.5976C19.4043 26.0742 19.4912 26.5145 19.5778 26.9547ZM28.2006 31.9052C24.0843 31.9052 20.7042 29.0814 20.7042 25.5976C20.7042 22.1138 24.0408 19.2899 28.1576 19.2899C32.2739 19.2899 35.6105 22.1138 35.6105 25.5976C35.6536 29.0814 32.3174 31.9052 28.2006 31.9052Z" fill="#25413D"/>
</g>
<path d="M30.5839 26.111L28.8508 27.5778V22.2603C28.8508 21.9669 28.5473 21.7104 28.2007 21.7104C27.854 21.7104 27.5509 21.9669 27.5509 22.2603V27.5778L25.8174 26.111C25.5573 25.8909 25.1676 25.8909 24.9076 26.111C24.6475 26.3312 24.6475 26.6613 24.9076 26.8811L27.7675 29.3015C27.8975 29.4116 28.0706 29.4484 28.2441 29.4484C28.4172 29.4484 28.5908 29.4116 28.7208 29.3015L31.5807 26.8811C31.8408 26.6613 31.8408 26.3312 31.5807 26.111C31.2341 25.8909 30.844 25.8909 30.5839 26.111Z" fill="#25413D"/>
</svg>
