<svg width="104" height="37" viewBox="0 0 104 37" fill="none" xmlns="http://www.w3.org/2000/svg">
<path d="M18.7798 10.6781H15.6809V25.9123H25.5331V22.9414H18.7798V10.6781Z" fill="white"/>
<path d="M34.5444 10.6781H31.4476V25.9123H34.5444V10.6781Z" fill="white"/>
<path d="M49.6276 19.7692L44.7529 10.6781H41.5786V25.9123H44.6754V16.9492L49.6025 25.9123H52.7244V10.6781H49.6276V19.7692Z" fill="white"/>
<path d="M59.7566 25.9123H69.7618V22.9414H62.8554V19.7419H69.5333V16.7731H62.8554V13.649H69.7618V10.6781H59.7566V25.9123Z" fill="white"/>
<path d="M87.8013 18.8425C87.6231 18.5804 87.4051 18.3477 87.143 18.1443C86.8809 17.9409 86.5727 17.79 86.2184 17.6873L79.7879 15.9345C79.7712 15.9345 79.7544 15.9261 79.7376 15.9093C79.7209 15.8925 79.7125 15.8506 79.7125 15.7814V14.884V14.2425C79.832 14.0894 79.9368 13.9678 80.0291 13.8734C80.1213 13.7812 80.2199 13.6869 80.3205 13.5946C80.4211 13.5023 80.5239 13.429 80.6245 13.3786H84.0022C84.3419 13.5988 84.6081 13.8525 84.8031 14.1397C84.8786 14.2529 84.9667 14.4731 85.0338 14.5863L88.2479 14.5926C88.2479 14.5926 88.1242 13.6323 87.6021 12.8167C87.6021 12.8146 87.6001 12.8146 87.6001 12.8125C87.5393 12.7119 87.4826 12.628 87.4302 12.5672C87.2772 12.3471 87.0864 12.1102 86.8578 11.8565C86.6293 11.6028 86.3756 11.3701 86.0968 11.1583C85.8179 10.9465 85.5097 10.7683 85.17 10.6257C84.8325 10.4832 84.4677 10.4098 84.0777 10.4098H80.5742C80.2702 10.4098 79.9662 10.4601 79.6621 10.5628C79.3581 10.6635 79.1065 10.7746 78.9053 10.892C78.7711 10.9759 78.6159 11.0996 78.4398 11.261C78.2637 11.4225 78.0876 11.5902 77.9114 11.7684C77.7353 11.9466 77.5718 12.1227 77.4208 12.301C77.2699 12.4792 77.1525 12.6259 77.0686 12.7455C76.9009 12.9991 76.7834 13.2738 76.7164 13.5715C76.6493 13.8672 76.6157 14.1167 76.6157 14.32V14.884V15.8841C76.6157 16.1881 76.6577 16.4985 76.7436 16.8109C76.8275 17.1233 76.9596 17.4168 77.1378 17.6873C77.316 17.9577 77.5361 18.1905 77.7982 18.3854C78.0603 18.5804 78.3706 18.7293 78.7249 18.8299C79.7921 19.1172 80.8614 19.4044 81.937 19.6937C83.0126 19.981 84.0819 20.2703 85.1491 20.5576L85.1742 20.5827C85.2078 20.6163 85.2246 20.6582 85.2246 20.7106V22.2076C85.105 22.3607 85.0002 22.4823 84.908 22.5766C84.8157 22.6689 84.7172 22.7632 84.6165 22.8555C84.5159 22.9477 84.4131 23.0211 84.3125 23.0714H80.5302C80.1905 22.8513 79.9242 22.5976 79.7292 22.3104C79.6538 22.1971 79.5846 22.086 79.5175 21.9728H76.2823C76.2823 21.9728 76.4312 22.8198 76.9281 23.6333C76.9281 23.6354 76.9302 23.6354 76.9302 23.6375C76.991 23.7382 77.0476 23.822 77.1 23.8828C77.2531 24.103 77.4439 24.3399 77.6724 24.5936C77.901 24.8473 78.1547 25.08 78.4335 25.2918C78.7124 25.5036 79.0206 25.6818 79.3602 25.8243C79.6978 25.9669 80.0626 26.0403 80.4526 26.0403H84.3628C84.6668 26.0403 84.9709 25.99 85.2749 25.8872C85.5789 25.7866 85.8305 25.6755 86.0318 25.5581C86.1659 25.4742 86.3211 25.3505 86.4972 25.1891C86.6733 25.0276 86.8494 24.8599 87.0256 24.6817C87.2017 24.5035 87.3652 24.3273 87.5162 24.1491C87.6671 23.9709 87.7846 23.8241 87.8684 23.7046C88.0362 23.4509 88.1536 23.1763 88.2207 22.8786C88.2878 22.5829 88.3213 22.3334 88.3213 22.13V20.6309C88.3213 20.3269 88.2794 20.0187 88.1955 19.7042C88.1095 19.3918 87.9795 19.1046 87.8013 18.8425Z" fill="white"/>
<path d="M0 0V36.706H104V0H0ZM2.18471 34.5213V19.4464L7.58357 19.4527V17.268L2.18471 17.2617V2.1868H101.815V17.2806H96.3682V19.4653H101.815V34.5234H2.18471V34.5213Z" fill="white"/>
</svg>
